<svg width="48" height="18" viewBox="0 0 48 18" fill="none" xmlns="http://www.w3.org/2000/svg">
<path d="M1.15665 17.9024C0.38555 17.9024 0 17.439 0 16.5122C0 16.187 0.0321292 15.8537 0.0963874 15.5122L2.3133 3.31707C2.36149 2.99187 2.38559 2.72358 2.38559 2.51219C2.38559 2.04065 2.23298 1.80488 1.92775 1.80488C1.73497 1.80488 1.39762 1.9187 0.915681 2.14634H0.891584C0.811261 2.14634 0.763067 2.10569 0.747003 2.02439C0.730938 1.92683 0.755035 1.86992 0.819293 1.85366L4.55431 0H4.6025C4.66676 0 4.72298 0.0243899 4.77118 0.0731697C4.83544 0.121951 4.85953 0.162602 4.84347 0.195122L2.14462 15.5122C2.09643 15.7561 2.07233 15.9594 2.07233 16.122C2.07233 16.4797 2.19281 16.6585 2.43378 16.6585C2.59443 16.6585 2.77114 16.5854 2.96391 16.439C3.17275 16.2927 3.42175 16.0813 3.71092 15.8049C3.74305 15.7724 3.77517 15.7561 3.8073 15.7561C3.8555 15.7561 3.89566 15.7886 3.92779 15.8537C3.95992 15.9024 3.95188 15.9512 3.90369 16C3.3575 16.6504 2.87556 17.1301 2.45788 17.439C2.0402 17.748 1.60646 17.9024 1.15665 17.9024Z" fill="#222326"/>
<path d="M9.42357 18C8.50788 18 7.69662 17.7724 6.98978 17.3171C6.28294 16.8455 5.73675 16.2195 5.3512 15.439C4.96565 14.6423 4.77287 13.7805 4.77287 12.8537C4.77287 11.7967 5.02187 10.9024 5.51988 10.1707C6.03394 9.42276 6.67652 8.86992 7.44762 8.5122C8.23479 8.13821 9.03802 7.95122 9.85731 7.95122C10.7891 7.95122 11.6003 8.18699 12.2911 8.65854C12.9979 9.13008 13.5361 9.7561 13.9056 10.5366C14.2911 11.3008 14.4839 12.1138 14.4839 12.9756C14.4839 13.9837 14.251 14.8699 13.7851 15.6341C13.3353 16.3984 12.7248 16.9837 11.9537 17.3902C11.1826 17.7967 10.3392 18 9.42357 18ZM10.0983 17.561C11.03 17.561 11.761 17.2439 12.2911 16.6098C12.8212 15.9756 13.0863 14.9756 13.0863 13.6098C13.0863 12.6341 12.9176 11.7561 12.5803 10.9756C12.2429 10.1789 11.769 9.55285 11.1585 9.09756C10.5481 8.64228 9.84928 8.41463 9.06211 8.41463C8.14643 8.41463 7.43156 8.73984 6.91749 9.39024C6.40343 10.0244 6.14639 10.9431 6.14639 12.1463C6.14639 13.122 6.31507 14.0244 6.65243 14.8537C6.98978 15.6667 7.45566 16.3252 8.05005 16.8293C8.64443 17.3171 9.32718 17.561 10.0983 17.561Z" fill="#222326"/>
<path d="M19.9433 18C19.0277 18 18.2164 17.7724 17.5096 17.3171C16.8027 16.8455 16.2565 16.2195 15.871 15.439C15.4854 14.6423 15.2927 13.7805 15.2927 12.8537C15.2927 11.7967 15.5417 10.9024 16.0397 10.1707C16.5537 9.42276 17.1963 8.86992 17.9674 8.5122C18.7546 8.13821 19.5578 7.95122 20.3771 7.95122C21.3088 7.95122 22.1201 8.18699 22.8109 8.65854C23.5177 9.13008 24.0559 9.7561 24.4254 10.5366C24.8109 11.3008 25.0037 12.1138 25.0037 12.9756C25.0037 13.9837 24.7708 14.8699 24.3049 15.6341C23.8551 16.3984 23.2446 16.9837 22.4735 17.3902C21.7024 17.7967 20.859 18 19.9433 18ZM20.6181 17.561C21.5498 17.561 22.2807 17.2439 22.8109 16.6098C23.341 15.9756 23.6061 14.9756 23.6061 13.6098C23.6061 12.6341 23.4374 11.7561 23.1 10.9756C22.7627 10.1789 22.2888 9.55285 21.6783 9.09756C21.0679 8.64228 20.3691 8.41463 19.5819 8.41463C18.6662 8.41463 17.9513 8.73984 17.4373 9.39024C16.9232 10.0244 16.6662 10.9431 16.6662 12.1463C16.6662 13.122 16.8349 14.0244 17.1722 14.8537C17.5096 15.6667 17.9754 16.3252 18.5698 16.8293C19.1642 17.3171 19.847 17.561 20.6181 17.561Z" fill="#222326"/>
<path d="M42.7043 17.3902C42.7525 17.3902 42.7766 17.439 42.7766 17.5366C42.7766 17.6341 42.7525 17.6829 42.7043 17.6829C42.3349 17.6829 42.0457 17.6748 41.8368 17.6585L40.5597 17.6341L39.3067 17.6585C39.0818 17.6748 38.7846 17.6829 38.4151 17.6829C38.383 17.6829 38.3669 17.6341 38.3669 17.5366C38.3669 17.439 38.383 17.3902 38.4151 17.3902C38.881 17.3902 39.2183 17.3496 39.4272 17.2683C39.6521 17.187 39.8047 17.0325 39.885 16.8049C39.9653 16.561 40.0055 16.1951 40.0055 15.7073V11.7317C40.0055 10.7398 39.8288 10.0081 39.4754 9.53658C39.138 9.06504 38.5998 8.82927 37.8609 8.82927C37.3629 8.82927 36.8488 8.98374 36.3187 9.29268C35.8046 9.58537 35.3307 10 34.897 10.5366C34.913 10.6179 34.9211 10.7642 34.9211 10.9756V15.7073C34.9211 16.1951 34.9612 16.561 35.0415 16.8049C35.1219 17.0325 35.2664 17.187 35.4753 17.2683C35.7002 17.3496 36.0456 17.3902 36.5114 17.3902C36.5436 17.3902 36.5596 17.439 36.5596 17.5366C36.5596 17.6341 36.5436 17.6829 36.5114 17.6829C36.142 17.6829 35.8448 17.6748 35.6199 17.6585L34.3668 17.6341L33.0897 17.6585C32.8809 17.6748 32.5917 17.6829 32.2222 17.6829C32.174 17.6829 32.1499 17.6341 32.1499 17.5366C32.1499 17.439 32.174 17.3902 32.2222 17.3902C32.6881 17.3902 33.0254 17.3496 33.2343 17.2683C33.4431 17.187 33.5877 17.0325 33.668 16.8049C33.7483 16.561 33.7885 16.1951 33.7885 15.7073V11.7317C33.7885 10.7398 33.6118 10.0081 33.2584 9.53658C32.921 9.06504 32.3909 8.82927 31.668 8.82927C31.17 8.82927 30.6639 8.97561 30.1499 9.26829C29.6358 9.56098 29.1619 9.97561 28.7282 10.5122V15.7073C28.7282 16.1951 28.7603 16.561 28.8245 16.8049C28.9049 17.0325 29.0495 17.187 29.2583 17.2683C29.4832 17.3496 29.8286 17.3902 30.2945 17.3902C30.3426 17.3902 30.3667 17.439 30.3667 17.5366C30.3667 17.6341 30.3426 17.6829 30.2945 17.6829C29.925 17.6829 29.6358 17.6748 29.427 17.6585L28.1739 17.6341L26.8968 17.6585C26.688 17.6748 26.3988 17.6829 26.0293 17.6829C25.9811 17.6829 25.957 17.6341 25.957 17.5366C25.957 17.439 25.9811 17.3902 26.0293 17.3902C26.4952 17.3902 26.8325 17.3496 27.0414 17.2683C27.2502 17.187 27.3948 17.0325 27.4751 16.8049C27.5554 16.561 27.5956 16.1951 27.5956 15.7073V10.8293C27.5956 10.2602 27.5314 9.85366 27.4028 9.60976C27.2743 9.36585 27.0494 9.2439 26.7281 9.2439C26.4711 9.2439 26.0213 9.36585 25.3787 9.60976H25.3305C25.2662 9.60976 25.2181 9.57724 25.1859 9.5122C25.1699 9.43089 25.194 9.37398 25.2582 9.34146L27.933 8.07317C27.9651 8.05691 28.0053 8.04878 28.0534 8.04878C28.182 8.04878 28.3265 8.23577 28.4872 8.60976C28.6478 8.96748 28.7282 9.43089 28.7282 10V10.0976C29.3225 9.36585 29.9089 8.8374 30.4872 8.5122C31.0656 8.18699 31.668 8.02439 32.2945 8.02439C33.0174 8.02439 33.5957 8.21138 34.0295 8.58537C34.4793 8.94309 34.7604 9.47968 34.8729 10.1951C35.4833 9.43089 36.0857 8.87805 36.6801 8.53658C37.2745 8.19512 37.885 8.02439 38.5115 8.02439C39.3629 8.02439 40.0135 8.26829 40.4633 8.7561C40.9131 9.2439 41.138 9.98374 41.138 10.9756V15.7073C41.138 16.1951 41.1702 16.561 41.2344 16.8049C41.3148 17.0325 41.4593 17.187 41.6682 17.2683C41.8931 17.3496 42.2385 17.3902 42.7043 17.3902Z" fill="#222326"/>
<path d="M43.6385 17.6829C43.6063 17.6829 43.5903 17.6341 43.5903 17.5366C43.5903 17.439 43.6063 17.3902 43.6385 17.3902C44.1043 17.3902 44.4417 17.3496 44.6505 17.2683C44.8754 17.187 45.0281 17.0325 45.1084 16.8049C45.1887 16.561 45.2289 16.1951 45.2289 15.7073V11.0976C45.2289 10.4959 45.1646 10.065 45.0361 9.80488C44.9236 9.54472 44.7228 9.41463 44.4337 9.41463C44.1284 9.41463 43.7429 9.53659 43.277 9.78049H43.2529C43.1887 9.78049 43.1405 9.73984 43.1083 9.65854C43.0762 9.57724 43.0923 9.52032 43.1565 9.4878L46.1445 8.07317L46.2409 8.04878C46.2731 8.04878 46.3052 8.06504 46.3373 8.09756C46.3855 8.13008 46.4096 8.17073 46.4096 8.21951C46.4096 8.31707 46.4016 8.64228 46.3855 9.19512C46.3694 9.73171 46.3614 10.3577 46.3614 11.0732V15.7073C46.3614 16.1951 46.3935 16.561 46.4578 16.8049C46.5381 17.0325 46.6827 17.187 46.8915 17.2683C47.1164 17.3496 47.4618 17.3902 47.9277 17.3902C47.9759 17.3902 48 17.439 48 17.5366C48 17.6341 47.9759 17.6829 47.9277 17.6829C47.5582 17.6829 47.2691 17.6748 47.0602 17.6585L45.7831 17.6341L44.5301 17.6585C44.3051 17.6748 44.008 17.6829 43.6385 17.6829ZM45.5903 5.09756C45.2851 5.09756 45.0441 5.01626 44.8674 4.85366C44.7068 4.69106 44.6264 4.46342 44.6264 4.17073C44.6264 3.87805 44.7068 3.65041 44.8674 3.4878C45.0441 3.3252 45.2851 3.2439 45.5903 3.2439C45.8795 3.2439 46.1044 3.3252 46.265 3.4878C46.4257 3.65041 46.506 3.87805 46.506 4.17073C46.506 4.46342 46.4257 4.69106 46.265 4.85366C46.1044 5.01626 45.8795 5.09756 45.5903 5.09756Z" fill="#222326"/>
</svg>
